<svg width="17" height="17" viewBox="0 0 17 17" fill="none" xmlns="http://www.w3.org/2000/svg">
<path d="M15.171 9.4338C15.4821 9.12264 15.4821 8.61815 15.171 8.30699C14.8598 7.99583 14.3553 7.99583 14.0442 8.30699L15.171 9.4338ZM9.29573 14.1822L8.73232 14.7456C9.04348 15.0568 9.54798 15.0568 9.85914 14.7456L9.29573 14.1822ZM4.54729 8.30698C4.23613 7.99581 3.73164 7.99581 3.42048 8.30697C3.10932 8.61813 3.10932 9.12263 3.42048 9.43379L4.54729 8.30698ZM14.0442 8.30699L8.73233 13.6188L9.85914 14.7456L15.171 9.4338L14.0442 8.30699ZM9.85914 13.6188L4.54729 8.30698L3.42048 9.43379L8.73232 14.7456L9.85914 13.6188Z" fill="#6E6E6E"/>
</svg>
