<svg width="25" height="25" viewBox="0 0 25 25" fill="none" xmlns="http://www.w3.org/2000/svg">
<path d="M19.5296 12.3688C19.5296 16.3237 16.3236 19.5297 12.3687 19.5296L12.3687 21.6128C17.474 21.6128 21.6128 17.4741 21.6128 12.3688L19.5296 12.3688ZM12.3687 19.5296C8.41391 19.5296 5.20788 16.3237 5.20789 12.3688L3.12473 12.3688C3.12472 17.4741 7.2634 21.6128 12.3687 21.6128L12.3687 19.5296ZM5.20789 12.3688C5.20789 8.41394 8.41393 5.20791 12.3688 5.20792L12.3688 3.12476C7.26343 3.12475 3.12474 7.26343 3.12473 12.3688L5.20789 12.3688ZM12.3688 5.20792C16.3236 5.20792 19.5296 8.41396 19.5296 12.3688L21.6128 12.3688C21.6128 7.26346 17.4741 3.12477 12.3688 3.12476L12.3688 5.20792Z" fill="#1A1A1A"/>
<path d="M18.9052 17.4326C18.4984 17.0258 17.8389 17.0258 17.4322 17.4326C17.0254 17.8393 17.0254 18.4988 17.4321 18.9056L18.9052 17.4326ZM22.1779 23.6514C22.5847 24.0581 23.2442 24.0581 23.6509 23.6514C24.0577 23.2446 24.0577 22.5851 23.6509 22.1784L22.1779 23.6514ZM17.4321 18.9056L22.1779 23.6514L23.6509 22.1784L18.9052 17.4326L17.4321 18.9056Z" fill="#1A1A1A"/>
</svg>
