<svg width="41" height="41" viewBox="0 0 41 41" fill="none" xmlns="http://www.w3.org/2000/svg">
<path d="M36.479 25.433L20.4957 15.5965L4.51235 25.433C3.90894 25.8032 3.11977 25.6161 2.7508 25.0128C2.37928 24.4107 2.56761 23.6215 3.17102 23.2512L19.8256 13.0022C20.2369 12.7486 20.757 12.7486 21.1682 13.0022L37.8228 23.2512C38.4263 23.6228 38.6133 24.4107 38.243 25.0128C37.869 25.6187 37.0772 25.802 36.479 25.433Z" fill="#FD650B"/>
<path d="M23.7008 28.1848L17.2951 28.1848C16.9416 28.1848 16.6546 28.4717 16.6546 28.8253L16.6546 38.4338L7.6867 38.4338L7.68672 25.7366L20.498 17.8538L33.3092 25.7378L33.3092 38.4338L24.3413 38.4338L24.3413 28.8253C24.3413 28.4718 24.0544 28.1848 23.7008 28.1848ZM35.8715 2.5623L35.8715 10.5437C35.8715 10.9075 35.4321 11.0895 35.1746 10.832L32.5201 8.17747L28.0361 12.6614C27.516 13.1828 26.7102 13.2789 26.0799 12.9022L20.5082 9.55978L2.56222 20.6044L2.56223 16.8442L19.6588 6.32366C20.1675 6.00979 20.808 6.00594 21.323 6.3147L26.6563 9.51495L30.2564 5.915L27.6018 3.2605C27.3431 3.00171 27.5262 2.56229 27.8901 2.56229L35.8715 2.5623Z" fill="#FD650B"/>
</svg>
